<svg version="1.1" viewBox="0 0 96 96" xmlns="http://www.w3.org/2000/svg" xmlns:xlink="http://www.w3.org/1999/xlink" id="Icons_OpenFolder" overflow="hidden"><style>
.MsftOfcThm_Background1_lumMod_50_lumOff_50_Fill {
 fill:#7F7F7F; 
}
</style>
<path d=" M 28.9 37 L 79 37 L 79 32 C 79 29.8 77.2 28 75 28 L 45 28 L 34 20.7 C 33.3 20.3 32.6 20 31.8 20 L 13 20 C 10.8 20 9 21.8 9 24 L 9 73 C 9 73.2 21.9 41.7 21.9 41.7 C 23.1 38.9 25.8 37 28.9 37 Z" stroke="none" stroke-width="1" stroke-dasharray="" stroke-dashoffset="1" fill="#7F7F7F" fill-opacity="1"/><path d=" M 87 45 C 87 42.9 85.5 41.2 83.4 41 L 28.9 41 C 27.4 41 26.1 41.9 25.5 43.2 L 12 76 L 73 76 L 86.6 46.8 C 86.9 46.2 87 45.6 87 45 L 87 45 Z" stroke="none" stroke-width="1" stroke-dasharray="" stroke-dashoffset="1" fill="#7F7F7F" fill-opacity="1"/></svg>